<svg xmlns="http://www.w3.org/2000/svg" width="113.449" height="40.011" viewBox="0 0 113.449 40.011">
    <defs>
        <style>
            .prefix__cls-1{fill:#fff}
        </style>
    </defs>
    <g id="prefix__Logo" transform="translate(-478.71 -451.477)">
        <g id="prefix__Group_1" data-name="Group 1" transform="translate(478.79 451.788)">
            <path id="prefix__Path_1" d="M485.455 477.036v-12.324l16.826 15.213h1.653v-28.3h-3.872c-1.945 0-2.892.944-2.892 2.892v12.559l-16.749-15.451h-1.674v28.3h3.815c1.946.001 2.893-.946 2.893-2.889z" class="prefix__cls-1" data-name="Path 1" transform="translate(-478.748 -451.625)"/>
            <path id="prefix__Path_2" d="M507 479.926c1.945 0 2.89-.946 2.89-2.89v-7.828l.04-.063 10.961-17.521h-5.624a3.808 3.808 0 0 0-3.523 2.042l-5.266 8.927-5.188-8.927a3.768 3.768 0 0 0-3.5-2.042h-5.451l10.791 17.548v10.753z" class="prefix__cls-1" data-name="Path 2" transform="translate(-463.761 -451.625)"/>
            <path id="prefix__Path_3" d="M528.965 451.625h-21.531v28.3h3.834c1.945 0 2.89-.946 2.89-2.89v-8.09h8.707c1.933 0 2.871-.946 2.871-2.892v-3.005h-11.579v-5.527h11.918c1.945 0 2.89-.946 2.89-2.892z" class="prefix__cls-1" data-name="Path 3" transform="translate(-447.106 -451.625)"/>
        </g>
        <g id="prefix__Group_2" data-name="Group 2" transform="translate(478.71 484.331)">
            <path id="prefix__Path_4" d="M483.98 467.158v.547a.548.548 0 0 1-.62.622h-1.35v5.108a.549.549 0 0 1-.62.622h-.7v-5.731h-1.98v-.547a.553.553 0 0 1 .627-.623z" class="prefix__cls-1" data-name="Path 4" transform="translate(-478.71 -467.034)"/>
            <path id="prefix__Path_5" d="M483.025 471.863v1.573a.553.553 0 0 1-.627.622h-.686v-6.9h3.129a2.274 2.274 0 0 1 2.377 2.377 2.535 2.535 0 0 1-.4 1.407 1.775 1.775 0 0 1-1.035.8l1.72 2.32h-1.1a.907.907 0 0 1-.753-.387l-1.321-1.809zm0-1.15h1.5q1.379 0 1.378-1.188a1.153 1.153 0 0 0-.339-.866 1.433 1.433 0 0 0-1.039-.33h-1.5z" class="prefix__cls-1" data-name="Path 5" transform="translate(-475.398 -467.034)"/>
            <path id="prefix__Path_6" d="M486.217 473.608a.753.753 0 0 1-.736.45h-.925l3.527-6.9h.132l3.527 6.9h-.925a.751.751 0 0 1-.736-.45l-.309-.637h-3.255zm1.933-3.867l-.988 2.084h1.971z" class="prefix__cls-1" data-name="Path 6" transform="translate(-472.261 -467.034)"/>
            <path id="prefix__Path_7" d="M488.358 474.058v-6.9h2.724a3.174 3.174 0 0 1 3.457 3.451 3.468 3.468 0 0 1-.9 2.526 3.414 3.414 0 0 1-2.557.923zm1.321-1.188h1.4q2.132 0 2.132-2.254 0-2.275-2.132-2.269h-1.4z" class="prefix__cls-1" data-name="Path 7" transform="translate(-468.068 -467.034)"/>
            <path id="prefix__Path_8" d="M492.579 467.158a.55.55 0 0 1 .62.623v6.278h-.7a.549.549 0 0 1-.62-.622v-6.278z" class="prefix__cls-1" data-name="Path 8" transform="translate(-464.184 -467.034)"/>
            <path id="prefix__Path_9" d="M499.261 474.058h-.137l-4.543-4.1v3.478a.553.553 0 0 1-.627.622h-.686v-6.9h.143l4.532 4.175v-3.552a.551.551 0 0 1 .623-.623h.694z" class="prefix__cls-1" data-name="Path 9" transform="translate(-462.651 -467.034)"/>
            <path id="prefix__Path_10" d="M503.7 470.352a6.815 6.815 0 0 1 0 .885 3.2 3.2 0 0 1-1.037 2.179 3.357 3.357 0 0 1-2.345.839 3.556 3.556 0 0 1-2.6-1.047 3.417 3.417 0 0 1-1.06-2.526 3.57 3.57 0 0 1 5.27-3.153 3.566 3.566 0 0 1 1.27 1.161l-.622.387a.656.656 0 0 1-.864-.128 2.176 2.176 0 0 0-3.085.059 2.3 2.3 0 0 0-.658 1.672 2.264 2.264 0 0 0 .679 1.678 2.335 2.335 0 0 0 1.706.669 2.065 2.065 0 0 0 1.319-.423 1.6 1.6 0 0 0 .625-1.064h-1.924a.548.548 0 0 1-.62-.622v-.566z" class="prefix__cls-1" data-name="Path 10" transform="translate(-458.914 -467.099)"/>
            <path id="prefix__Path_11" d="M501.818 474.058v-6.9h5.073v.585c0 .391-.21.585-.627.585h-3.134v1.727h2.959v.543a.558.558 0 0 1-.627.627h-2.332v1.666h3.123a.63.63 0 0 1 .454.179.609.609 0 0 1 .183.452v.538z" class="prefix__cls-1" data-name="Path 11" transform="translate(-453.221 -467.034)"/>
            <path id="prefix__Path_12" d="M504.656 474.058l2.561-3.411-2.618-3.489h1.169a.887.887 0 0 1 .763.387l1.506 2.1 1.51-2.1a.882.882 0 0 1 .763-.387h1.161l-2.61 3.489 2.564 3.411h-1.178a.886.886 0 0 1-.757-.387l-1.453-2.017-1.449 2.017a.875.875 0 0 1-.755.387z" class="prefix__cls-1" data-name="Path 12" transform="translate(-450.153 -467.034)"/>
            <path id="prefix__Path_13" d="M513.775 469.263a.58.58 0 0 1-.69-.2 2.035 2.035 0 0 0-1.621-.732 2.121 2.121 0 0 0-1.592.692 2.41 2.41 0 0 0 0 3.31 2.124 2.124 0 0 0 1.592.688 2.054 2.054 0 0 0 1.621-.721.555.555 0 0 1 .69-.2l.81.328a3.085 3.085 0 0 1-1.216 1.325 3.585 3.585 0 0 1-1.905.5 3.575 3.575 0 1 1 1.912-6.627 3.294 3.294 0 0 1 1.209 1.312z" class="prefix__cls-1" data-name="Path 13" transform="translate(-446.52 -467.095)"/>
            <path id="prefix__Path_14" d="M511.559 474.058v-6.9h5.073v.585c0 .391-.208.585-.627.585h-3.134v1.727h2.959v.543a.556.556 0 0 1-.625.627h-2.335v1.666H516a.621.621 0 0 1 .452.179.6.6 0 0 1 .183.452v.538z" class="prefix__cls-1" data-name="Path 14" transform="translate(-442.476 -467.034)"/>
            <path id="prefix__Path_15" d="M515.94 472.889h3.024a.548.548 0 0 1 .62.622v.547h-4.965v-6.9h.694a.556.556 0 0 1 .627.623z" class="prefix__cls-1" data-name="Path 15" transform="translate(-439.1 -467.034)"/>
            <path id="prefix__Path_16" d="M518.7 472.889h3.022a.55.55 0 0 1 .623.622v.547h-4.967v-6.9h.7a.556.556 0 0 1 .627.623z" class="prefix__cls-1" data-name="Path 16" transform="translate(-436.062 -467.034)"/>
            <path id="prefix__Path_17" d="M520.13 474.058v-6.9h5.07v.585c0 .391-.21.585-.627.585h-3.134v1.727h2.961v.543a.558.558 0 0 1-.627.627h-2.332v1.666h3.123a.63.63 0 0 1 .454.179.609.609 0 0 1 .183.452v.538z" class="prefix__cls-1" data-name="Path 17" transform="translate(-433.022 -467.034)"/>
            <path id="prefix__Path_18" d="M529.183 474.058h-.139l-4.543-4.1v3.478a.552.552 0 0 1-.627.622h-.686v-6.9h.143l4.534 4.175v-3.552a.549.549 0 0 1 .62-.623h.7z" class="prefix__cls-1" data-name="Path 18" transform="translate(-429.647 -467.034)"/>
            <path id="prefix__Path_19" d="M532.459 469.263a.58.58 0 0 1-.69-.2 2.034 2.034 0 0 0-1.619-.732 2.122 2.122 0 0 0-1.594.692 2.409 2.409 0 0 0 0 3.31 2.125 2.125 0 0 0 1.594.688 2.053 2.053 0 0 0 1.619-.721.555.555 0 0 1 .69-.2l.81.328a3.086 3.086 0 0 1-1.215 1.325 3.583 3.583 0 0 1-1.9.5 3.574 3.574 0 1 1 1.909-6.627 3.293 3.293 0 0 1 1.209 1.312z" class="prefix__cls-1" data-name="Path 19" transform="translate(-425.91 -467.095)"/>
            <path id="prefix__Path_20" d="M530.243 474.058v-6.9h5.073v.585c0 .391-.208.585-.625.585h-3.135v1.727h2.961v.543a.558.558 0 0 1-.627.627h-2.334v1.666h3.125a.629.629 0 0 1 .454.179.607.607 0 0 1 .181.452v.538z" class="prefix__cls-1" data-name="Path 20" transform="translate(-421.867 -467.034)"/>
        </g>
        <path id="prefix__Path_21" d="M537.743 453.172l-18.881 27.357 6.719-.13a3.252 3.252 0 0 0 2.942-1.565l18.845-27.357-6.646.13a3.286 3.286 0 0 0-2.979 1.565z" class="prefix__cls-1" data-name="Path 21" transform="translate(44.29)"/>
        <path id="prefix__Path_22" d="M532.231 453.824l-5.462 7.937a1.279 1.279 0 0 1-2.185-.057l-5.462-7.937a1.461 1.461 0 0 1 1.205-2.29h10.921a1.367 1.367 0 0 1 .983 2.347z" class="prefix__cls-1" data-name="Path 22" transform="translate(44.29)"/>
        <path id="prefix__Path_23" d="M526.518 468.466l5.092-7.4a1.362 1.362 0 0 1 2.246 0l5.094 7.4a1.364 1.364 0 0 1-1.123 2.137h-10.186a1.364 1.364 0 0 1-1.123-2.137z" data-name="Path 23" transform="translate(52.467 9.926)" style="fill:#2b7ef0"/>
    </g>
</svg>
