<svg xmlns="http://www.w3.org/2000/svg" width="121.639" height="43.568" viewBox="0 0 121.639 43.568">
    <g id="prefix__NYFX_Logo" transform="translate(-81.499 -97.481)">
        <path id="prefix__Logo" d="M429.846-1479.452a3.8 3.8 0 0 1-3.745-3.856 3.8 3.8 0 0 1 3.855-3.745 3.792 3.792 0 0 1 1.921.554 3.5 3.5 0 0 1 1.286 1.4l-.862.34a.618.618 0 0 1-.733-.21 2.161 2.161 0 0 0-1.723-.779 2.257 2.257 0 0 0-1.695.736 2.563 2.563 0 0 0 0 3.52 2.265 2.265 0 0 0 1.695.731 2.183 2.183 0 0 0 1.723-.767.589.589 0 0 1 .733-.212l.862.349a3.288 3.288 0 0 1-1.292 1.409 3.827 3.827 0 0 1-1.942.529zm-41.784 0a3.8 3.8 0 0 1-3.742-3.858 3.8 3.8 0 0 1 3.858-3.741 3.8 3.8 0 0 1 1.917.553 3.5 3.5 0 0 1 1.285 1.4l-.86.34a.619.619 0 0 1-.733-.21 2.164 2.164 0 0 0-1.724-.779 2.249 2.249 0 0 0-1.693.736 2.561 2.561 0 0 0 0 3.52 2.257 2.257 0 0 0 1.693.731 2.186 2.186 0 0 0 1.724-.767.59.59 0 0 1 .733-.212l.86.349a3.288 3.288 0 0 1-1.292 1.409 3.831 3.831 0 0 1-1.943.529zm-25.029 0a3.781 3.781 0 0 1-2.764-1.114 3.63 3.63 0 0 1-1.128-2.686 3.8 3.8 0 0 1 3.794-3.806 3.8 3.8 0 0 1 1.806.454 3.792 3.792 0 0 1 1.351 1.235l-.662.411a.7.7 0 0 1-.919-.136 2.316 2.316 0 0 0-3.273.053l-.008.01a2.445 2.445 0 0 0-.7 1.778 2.406 2.406 0 0 0 .722 1.784 2.483 2.483 0 0 0 1.812.711 2.2 2.2 0 0 0 1.4-.449 1.7 1.7 0 0 0 .664-1.132h-2.047a.582.582 0 0 1-.66-.494.579.579 0 0 1 0-.167v-.6h4.2a7.477 7.477 0 0 1 0 .941 3.415 3.415 0 0 1-1.1 2.317 3.575 3.575 0 0 1-2.363.894zm-19.553-.139h-2.9v-7.338h2.9a3.376 3.376 0 0 1 3.676 3.046 3.368 3.368 0 0 1 0 .625 3.692 3.692 0 0 1-.958 2.687 3.636 3.636 0 0 1-2.491.989l-.227-.013zm-1.5-1.265h1.491q2.267 0 2.267-2.4 0-2.42-2.267-2.413h-1.491zm77.22 1.265h-.729v-7.337h.151l4.82 4.439v-3.778a.585.585 0 0 1 .495-.662.63.63 0 0 1 .165 0h.741v7.338h-.143l-4.829-4.361v3.7a.589.589 0 0 1-.5.662.57.57 0 0 1-.083.006.556.556 0 0 1-.088-.011zm-66.909 0h-.729v-7.337h.152l4.819 4.439v-3.778a.585.585 0 0 1 .5-.662.623.623 0 0 1 .164 0h.738v7.338h-.145l-4.83-4.361v3.7a.588.588 0 0 1-.5.662.517.517 0 0 1-.076.005.758.758 0 0 1-.092-.01zm-3.839-.5a.573.573 0 0 1 0-.167v-6.675h.745a.584.584 0 0 1 .66.5.624.624 0 0 1 0 .164v6.675h-.745a.588.588 0 0 1-.082.006.585.585 0 0 1-.576-.503zm-26.6.5h-.74v-6.1h-2.108v-.58a.587.587 0 0 1 .5-.663.584.584 0 0 1 .164 0h4.937v.582a.584.584 0 0 1-.491.661.627.627 0 0 1-.168 0h-1.436v5.431a.584.584 0 0 1-.495.661.659.659 0 0 1-.086.006.7.7 0 0 1-.075-.002zm4.6 0h-.729v-7.338h3.327a2.418 2.418 0 0 1 2.526 2.3v.223a2.708 2.708 0 0 1-.423 1.5 1.89 1.89 0 0 1-1.1.848l1.829 2.467h-1.173a.967.967 0 0 1-.8-.41l-1.4-1.923-1.392-.006v1.673a.588.588 0 0 1-.5.662.585.585 0 0 1-.079.005.718.718 0 0 1-.088-.01zm.666-3.559h1.6q1.465 0 1.464-1.264a1.223 1.223 0 0 0-.36-.921 1.52 1.52 0 0 0-1.1-.351h-1.6zm5.947 3.559h-.985l3.75-7.338h.141l3.749 7.338h-.984a.8.8 0 0 1-.783-.48l-.329-.678h-3.461l-.317.678a.8.8 0 0 1-.734.481zm1.786-2.375h2.1l-1.049-2.217zm70.618 2.376v-7.337h.74a.591.591 0 0 1 .666.5.617.617 0 0 1 0 .158v5.432h3.213a.584.584 0 0 1 .661.5.638.638 0 0 1 0 .166v.582zm-6.162 0v-7.337h.738a.591.591 0 0 1 .667.5.577.577 0 0 1 0 .158v5.432h3.216a.582.582 0 0 1 .661.493.585.585 0 0 1 0 .168v.582zm-17.206-.412l-1.545-2.145-1.541 2.145a.935.935 0 0 1-.8.411h-1.254l2.724-3.627-2.785-3.711h1.243a.945.945 0 0 1 .813.412l1.6 2.236 1.606-2.236a.936.936 0 0 1 .812-.412h1.226l-2.775 3.711 2.726 3.627h-1.278a.943.943 0 0 1-.773-.416zm52.146.411v-7.338h5.393v.622c0 .417-.221.623-.663.623h-3.334v1.836h3.148v.577a.594.594 0 0 1-.51.666.659.659 0 0 1-.157 0h-2.484v1.771h3.323a.66.66 0 0 1 .482.19.64.64 0 0 1 .193.481v.572zm-22.615 0v-7.338h5.395v.622c0 .417-.224.623-.667.623h-3.332v1.836h3.146v.577a.594.594 0 0 1-.51.666.659.659 0 0 1-.157 0h-2.48v1.771h3.321a.664.664 0 0 1 .482.19.641.641 0 0 1 .193.481v.572zm-19.166 0v-7.338h5.394v.622c0 .417-.221.623-.667.623h-3.332v1.836H397v.577a.59.59 0 0 1-.506.665.626.626 0 0 1-.158 0h-2.481v1.771h3.323a.657.657 0 0 1 .481.19.635.635 0 0 1 .2.481v.572zm-21.784 0v-7.338h5.395v.622c0 .417-.224.623-.666.623h-3.333v1.836h3.146v.577a.594.594 0 0 1-.51.666.651.651 0 0 1-.156 0h-2.48v1.771h3.322a.667.667 0 0 1 .483.19.653.653 0 0 1 .2.481v.572zm58.191-40.6a3.492 3.492 0 0 1 3.169-1.663l7.066-.139-20.038 29.089a3.459 3.459 0 0 1-3.128 1.664l-7.145.139zm-84.757 28.626l-17.892-16.177v13.1c0 2.066-1.006 3.073-3.08 3.074h-4.052v-30.093h1.78l17.809 16.429v-13.354c0-2.075 1.007-3.075 3.074-3.075h4.117v30.1zm39.125 0v-30.093h22.894v3.2c0 2.069-1.005 3.075-3.073 3.075h-12.673v5.87H402.7v3.2c0 2.069-1 3.075-3.052 3.075h-9.258v8.6c0 2.067-1 3.073-3.073 3.073zm-22.3 0v-11.434l-11.473-18.659h5.8a4.006 4.006 0 0 1 3.726 2.171l5.517 9.493 5.6-9.493a4.047 4.047 0 0 1 3.746-2.171h5.98l-11.655 18.63-.042.067v8.323c0 2.067-1 3.073-3.073 3.073zm54.381-19.083a1.355 1.355 0 0 1-.444-.465l-5.807-8.44a1.553 1.553 0 0 1 .4-2.161 1.554 1.554 0 0 1 .886-.275h11.613a1.452 1.452 0 0 1 1.48 1.426 1.458 1.458 0 0 1-.437 1.07l-5.807 8.439a1.361 1.361 0 0 1-1.145.623 1.35 1.35 0 0 1-.738-.226z" transform="translate(-237 1620)" style="fill:#fff;stroke:transparent;stroke-miterlimit:10"/>
        <path id="prefix__Red_Arrow" d="M565.687 1177.593l5.775-8.392a1.544 1.544 0 0 1 2.548 0l5.777 8.392a1.547 1.547 0 0 1-1.274 2.424h-11.552a1.548 1.548 0 0 1-1.274-2.424z" transform="translate(-377.956 -1051.152)" style="fill:red"/>
    </g>
</svg>
